<svg xmlns="http://www.w3.org/2000/svg" xmlns:xlink="http://www.w3.org/1999/xlink" xml:space="preserve" version="1.1" style="shape-rendering:geometricPrecision;text-rendering:geometricPrecision;image-rendering:optimizeQuality;" viewBox="0 0 714 806.25" x="0px" y="0px" fill-rule="evenodd" clip-rule="evenodd"><defs><style type="text/css">
   
    .fil0 {fill:black}
   
  </style></defs><g><path class="fil0" d="M158 251c8,-19 -5,-40 -25,-40 -22,0 -35,22 -25,41 10,20 40,19 50,-1zm244 -75c-130,0 -212,138 -154,252 70,135 269,121 318,-24 38,-111 -45,-228 -164,-228zm0 41c-92,0 -155,92 -124,177 42,116 208,116 249,-1 30,-85 -33,-176 -125,-176zm61 38l-91 53 0 -67c31,-9 64,-4 91,14zm-30 112l-31 17 -30 -17 0 -35 30 -18 31 17 0 36zm-82 -118l0 106 -58 -33c8,-32 30,-58 58,-73zm-61 100c0,-2 0,-4 0,-6l92 53 -58 34c-21,-21 -34,-49 -34,-81zm51 94l92 -53 0 67c-31,9 -65,4 -92,-14zm112 6l0 -106 58 33c-8,32 -30,59 -58,73zm61 -94l-92 -53 58 -33c21,20 34,49 34,80 0,2 0,4 0,6zm-248 63c-51,-100 21,-222 136,-222 106,0 178,105 145,203 -44,127 -220,139 -281,19zm-108 -70c8,-18 -5,-40 -25,-40 -22,0 -35,23 -25,41 10,21 40,20 50,-1zm445 297l-491 0c-62,0 -112,-50 -112,-112l0 -321c0,-61 50,-112 112,-112l114 0c6,0 11,-3 14,-9l22 -49c11,-25 36,-42 64,-42l161 0c28,0 53,16 65,41l23 51c5,11 18,8 28,8 61,0 111,51 111,112l0 181c0,38 -55,34 -55,0l0 -181c0,-43 -34,-56 -70,-56 -55,0 -69,-50 -88,-91 -3,-6 -8,-9 -14,-9l-161 0c-6,0 -11,3 -13,9 -19,41 -32,91 -87,91l-114 0c-31,0 -56,25 -56,56l0 321c0,31 25,56 56,56l491 0c31,0 56,-25 56,-56 0,-37 55,-37 55,0 0,62 -50,112 -111,112l0 0z"/></g><text x="0" y="660" fill="#000000" font-size="5px" font-weight="bold" font-family="'Helvetica Neue', Helvetica, Arial-Unicode, Arial, Sans-serif">Created by Nesi Ratna Nilasari</text><text x="0" y="665" fill="#000000" font-size="5px" font-weight="bold" font-family="'Helvetica Neue', Helvetica, Arial-Unicode, Arial, Sans-serif">from the Noun Project</text></svg>